<svg width="48" height="32" viewBox="0 0 48 32" fill="none" xmlns="http://www.w3.org/2000/svg">
<mask id="mask0_0_1143" style="mask-type:alpha" maskUnits="userSpaceOnUse" x="0" y="0" width="48" height="32">
<rect width="48" height="32" fill="#016FD0"/>
</mask>
<g mask="url(#mask0_0_1143)">
<rect x="0.5" y="0.5" width="47" height="31" rx="3.5" fill="white" stroke="#E8ECEF"/>
<path d="M9.90724 24.6421V17.4387H17.5351L18.3535 18.5055L19.199 17.4387H46.8862V24.1453C46.8862 24.1453 46.1622 24.6349 45.3247 24.6421H29.9937L29.071 23.5066V24.6421H26.0474V22.7037C26.0474 22.7037 25.6344 22.9743 24.7414 22.9743H23.7123V24.6421H19.1342L18.317 23.5524L17.4873 24.6421H9.90724Z" fill="#016FD0"/>
<path d="M1 12.0097L2.72012 8H5.69488L6.67106 10.2461V8H10.369L10.9501 9.6234L11.5135 8H28.1132V8.81614C28.1132 8.81614 28.9858 8 30.42 8L35.806 8.01882L36.7653 10.2355V8H39.8599L40.7116 9.27331V8H43.8346V15.2033H40.7116L39.8954 13.9259V15.2033H35.3487L34.8915 14.0678H33.6692L33.2194 15.2033H30.1361C28.902 15.2033 28.1132 14.4039 28.1132 14.4039V15.2033H23.4642L22.5415 14.0678V15.2033H5.25418L4.79727 14.0678H3.57887L3.12519 15.2033H1V12.0097Z" fill="#016FD0"/>
<path d="M3.32787 8.88794L1.00781 14.2822H2.51829L2.94637 13.202H5.435L5.86086 14.2822H7.40461L5.08677 8.88794H3.32787ZM4.18625 10.1433L4.94482 12.0309H3.42547L4.18625 10.1433Z" fill="white"/>
<path d="M7.56398 14.2807V8.88647L9.71045 8.89445L10.9589 12.3723L12.1775 8.88647H14.3068V14.2807H12.9582V10.306L11.5287 14.2807H10.346L8.91254 10.306V14.2807H7.56398Z" fill="white"/>
<path d="M15.231 14.2808V8.88647H19.6316V10.0931H16.5938V11.0158H19.5606V12.1514H16.5938V13.1096H19.6316V14.2808H15.231Z" fill="white"/>
<path d="M20.4112 8.88794V14.2822H21.7597V12.3658H22.3276L23.9445 14.2822H25.5925L23.8181 12.2949C24.5463 12.2334 25.2975 11.6084 25.2975 10.638C25.2975 9.50284 24.4066 8.88794 23.4122 8.88794H20.4112ZM21.7597 10.0946H23.3013C23.6711 10.0946 23.9401 10.3838 23.9401 10.6624C23.9401 11.0208 23.5915 11.2302 23.3212 11.2302H21.7597V10.0946Z" fill="white"/>
<path d="M27.2266 14.2808H25.8496V8.88647H27.2266V14.2808Z" fill="white"/>
<path d="M30.4913 14.2808H30.1941C28.756 14.2808 27.8829 13.1478 27.8829 11.6058C27.8829 10.0257 28.7462 8.88647 30.5623 8.88647H32.0528V10.1641H30.5078C29.7705 10.1641 29.2492 10.7394 29.2492 11.6191C29.2492 12.6638 29.8453 13.1025 30.7042 13.1025H31.0591L30.4913 14.2808Z" fill="white"/>
<path d="M33.427 8.88794L31.107 14.2822H32.6175L33.0455 13.202H35.5342L35.96 14.2822H37.5038L35.1859 8.88794H33.427ZM34.2854 10.1433L35.044 12.0309H33.5246L34.2854 10.1433Z" fill="white"/>
<path d="M37.6597 14.2808V8.88647H39.3743L41.5635 12.2757V8.88647H42.9121V14.2808H41.253L39.0083 10.8029V14.2808H37.6597Z" fill="white"/>
<path d="M10.8301 23.7202V18.3259H15.2307V19.5326H12.1929V20.4553H15.1597V21.5909H12.1929V22.5491H15.2307V23.7202H10.8301Z" fill="white"/>
<path d="M32.3921 23.7202V18.3259H36.7927V19.5326H33.7549V20.4553H36.7076V21.5909H33.7549V22.5491H36.7927V23.7202H32.3921Z" fill="white"/>
<path d="M15.4021 23.7202L17.5447 21.0563L15.3511 18.3259H17.0501L18.3565 20.0138L19.6674 18.3259H21.2999L19.1351 21.0231L21.2816 23.7202H19.5829L18.3144 22.0589L17.0767 23.7202H15.4021Z" fill="white"/>
<path d="M21.4405 18.3267V23.721H22.8245V22.0175H24.2441C25.4452 22.0175 26.3557 21.3803 26.3557 20.141C26.3557 19.1144 25.6416 18.3267 24.4193 18.3267H21.4405ZM22.8245 19.5466H24.3195C24.7075 19.5466 24.9849 19.7844 24.9849 20.1676C24.9849 20.5277 24.7089 20.7887 24.3151 20.7887H22.8245V19.5466Z" fill="white"/>
<path d="M26.9419 18.3259V23.7202H28.2905V21.8038H28.8583L30.4753 23.7202H32.1233L30.3489 21.7329C31.0771 21.6714 31.8283 21.0464 31.8283 20.076C31.8283 18.9408 30.9373 18.3259 29.943 18.3259H26.9419ZM28.2905 19.5326H29.8321C30.2018 19.5326 30.4709 19.8218 30.4709 20.1004C30.4709 20.4587 30.1223 20.6682 29.852 20.6682H28.2905V19.5326Z" fill="white"/>
<path d="M37.4184 23.7202V22.5491H40.1173C40.5166 22.5491 40.6895 22.3333 40.6895 22.0966C40.6895 21.8698 40.5172 21.6406 40.1173 21.6406H38.8977C37.8375 21.6406 37.2471 20.9947 37.2471 20.025C37.2471 19.16 37.7878 18.3259 39.3631 18.3259H41.9893L41.4215 19.5396H39.1502C38.716 19.5396 38.5824 19.7675 38.5824 19.985C38.5824 20.2087 38.7476 20.4553 39.0792 20.4553H40.3568C41.5386 20.4553 42.0514 21.1256 42.0514 22.0035C42.0514 22.9472 41.48 23.7202 40.2925 23.7202H37.4184Z" fill="white"/>
<path d="M42.3671 23.7202V22.5491H45.066C45.4654 22.5491 45.6383 22.3333 45.6383 22.0966C45.6383 21.8698 45.4659 21.6406 45.066 21.6406H43.8464C42.7863 21.6406 42.1959 20.9947 42.1959 20.025C42.1959 19.16 42.7365 18.3259 44.3119 18.3259H46.8844L46.3702 19.5396H44.099C43.6648 19.5396 43.5311 19.7675 43.5311 19.985C43.5311 20.2087 43.6963 20.4553 44.028 20.4553H45.3056C46.4874 20.4553 47.0002 21.1256 47.0002 22.0035C47.0002 22.9472 46.4287 23.7202 45.2412 23.7202H42.3671Z" fill="white"/>
</g>
</svg>
