<svg width="48" height="32" viewBox="0 0 48 32" fill="none" xmlns="http://www.w3.org/2000/svg">
<rect x="0.5" y="0.5" width="47" height="31" rx="3.5" fill="white" stroke="#E8ECEF"/>
<path fill-rule="evenodd" clip-rule="evenodd" d="M24 23.2878C22.3053 24.7501 20.107 25.6328 17.7049 25.6328C12.345 25.6328 8 21.2379 8 15.8164C8 10.395 12.345 6 17.7049 6C20.107 6 22.3053 6.88274 24 8.34502C25.6946 6.88274 27.8929 6 30.295 6C35.6549 6 39.9999 10.395 39.9999 15.8164C39.9999 21.2379 35.6549 25.6328 30.295 25.6328C27.8929 25.6328 25.6946 24.7501 24 23.2878Z" fill="#ED0006"/>
<path fill-rule="evenodd" clip-rule="evenodd" d="M23.9999 23.2878C26.0866 21.4873 27.4098 18.8081 27.4098 15.8164C27.4098 12.8247 26.0866 10.1455 23.9999 8.34502C25.6946 6.88274 27.8929 6 30.295 6C35.6549 6 39.9999 10.395 39.9999 15.8164C39.9999 21.2379 35.6549 25.6328 30.295 25.6328C27.8929 25.6328 25.6946 24.7501 23.9999 23.2878Z" fill="#F9A000"/>
<path fill-rule="evenodd" clip-rule="evenodd" d="M24 23.2878C26.0866 21.4873 27.4098 18.8081 27.4098 15.8164C27.4098 12.8246 26.0866 10.1455 24 8.34497C21.9133 10.1455 20.5901 12.8246 20.5901 15.8164C20.5901 18.8081 21.9133 21.4873 24 23.2878Z" fill="#FF5E00"/>
</svg>
