<svg width="48" height="32" viewBox="0 0 48 32" fill="none" xmlns="http://www.w3.org/2000/svg">
<rect x="0.5" y="0.5" width="47" height="31" rx="3.5" fill="white" stroke="#E8ECEF"/>
<path fill-rule="evenodd" clip-rule="evenodd" d="M9.50339 11.0012H6.58442C6.38467 11.0012 6.21479 11.1464 6.18364 11.3435L5.00306 18.8277C4.9796 18.9754 5.09398 19.1086 5.2438 19.1086H6.63734C6.83709 19.1086 7.00697 18.9634 7.03812 18.7659L7.35654 16.7473C7.38725 16.5496 7.55755 16.4047 7.75688 16.4047H8.68093C10.6038 16.4047 11.7134 15.4743 12.0034 13.6307C12.1339 12.8241 12.0089 12.1903 11.631 11.7464C11.2163 11.2591 10.4803 11.0012 9.50339 11.0012ZM9.84015 13.7347C9.68056 14.782 8.88026 14.782 8.10645 14.782H7.66597L7.97498 12.8261C7.99333 12.708 8.09576 12.6209 8.21528 12.6209H8.41716C8.94427 12.6209 9.44156 12.6209 9.69853 12.9213C9.85161 13.1006 9.89862 13.3668 9.84015 13.7347ZM18.2289 13.7012H16.8311C16.712 13.7012 16.6091 13.7883 16.5907 13.9066L16.5289 14.2974L16.4311 14.1558C16.1285 13.7166 15.4538 13.5698 14.7802 13.5698C13.2355 13.5698 11.9163 14.7396 11.6593 16.3806C11.5258 17.199 11.7156 17.9816 12.1799 18.5275C12.606 19.0294 13.2155 19.2385 13.9406 19.2385C15.1852 19.2385 15.8755 18.4383 15.8755 18.4383L15.8131 18.8267C15.7896 18.9752 15.9039 19.1084 16.0528 19.1084H17.312C17.5123 19.1084 17.6812 18.9632 17.7128 18.7657L18.4683 13.982C18.4922 13.8349 18.3782 13.7012 18.2289 13.7012ZM16.2804 16.4214C16.1455 17.2199 15.5117 17.7559 14.7034 17.7559C14.2975 17.7559 13.973 17.6258 13.7648 17.3791C13.5582 17.1342 13.4796 16.7854 13.5454 16.3972C13.6714 15.6054 14.3159 15.052 15.1119 15.052C15.5087 15.052 15.8314 15.1837 16.044 15.4326C16.2569 15.684 16.3414 16.0348 16.2804 16.4214ZM24.2688 13.701H25.6735C25.8702 13.701 25.985 13.9216 25.8732 14.0829L21.2013 20.8258C21.1257 20.935 21.001 21 20.8679 21H19.465C19.2674 21 19.1521 20.7776 19.2664 20.6158L20.7212 18.5627L19.174 14.0227C19.1205 13.8649 19.237 13.701 19.4049 13.701H20.7852C20.9645 13.701 21.1227 13.8187 21.1745 13.9903L21.9955 16.7323L23.933 13.8789C24.0088 13.7675 24.1348 13.701 24.2688 13.701Z" fill="#253B80"/>
<path fill-rule="evenodd" clip-rule="evenodd" d="M39.4992 18.8269L40.6972 11.2058C40.7156 11.0875 40.8181 11.0004 40.9372 11H42.2858C42.4347 11 42.5491 11.1335 42.5256 11.2812L41.3442 18.7651C41.3134 18.9626 41.1436 19.1077 40.9435 19.1077H39.739C39.5901 19.1077 39.4757 18.9746 39.4992 18.8269ZM30.3248 11.0004H27.4053C27.206 11.0004 27.0361 11.1456 27.0049 11.3427L25.8244 18.8269C25.8009 18.9746 25.9152 19.1077 26.0643 19.1077H27.5623C27.7016 19.1077 27.8207 19.0062 27.8424 18.868L28.1774 16.7465C28.2082 16.5488 28.3785 16.4038 28.5777 16.4038H29.5013C31.4246 16.4038 32.534 15.4734 32.8242 13.6298C32.9551 12.8233 32.8293 12.1895 32.4516 11.7455C32.0371 11.2583 31.3017 11.0004 30.3248 11.0004ZM30.6615 13.7339C30.5024 14.7812 29.702 14.7812 28.9277 14.7812H28.4877L28.7972 12.8252C28.8156 12.7071 28.9171 12.62 29.037 12.62H29.2388C29.7656 12.62 30.2634 12.62 30.5201 12.9204C30.6734 13.0998 30.72 13.366 30.6615 13.7339ZM39.0495 13.7003H37.6527C37.5326 13.7003 37.4306 13.7874 37.4127 13.9057L37.3509 14.2966L37.2527 14.155C36.9501 13.7157 36.2758 13.569 35.6022 13.569C34.0575 13.569 32.7386 14.7388 32.4817 16.3797C32.3485 17.1982 32.5376 17.9808 33.0019 18.5267C33.4288 19.0285 34.0375 19.2377 34.7626 19.2377C36.0071 19.2377 36.6973 18.4374 36.6973 18.4374L36.6351 18.8259C36.6115 18.9744 36.7259 19.1075 36.8758 19.1075H38.1344C38.3337 19.1075 38.5036 18.9624 38.5348 18.7649L39.2907 13.9812C39.3138 13.834 39.1994 13.7003 39.0495 13.7003ZM37.1012 16.4206C36.9671 17.2191 36.3325 17.7551 35.524 17.7551C35.1189 17.7551 34.7938 17.6249 34.5854 17.3783C34.3788 17.1334 34.3012 16.7846 34.3662 16.3963C34.4928 15.6046 35.1365 15.0512 35.9325 15.0512C36.3295 15.0512 36.652 15.1829 36.8648 15.4318C37.0785 15.6832 37.163 16.0339 37.1012 16.4206Z" fill="#179BD7"/>
</svg>
